<svg width="1200" height="800" viewBox="0 0 1200 800" fill="none" xmlns="http://www.w3.org/2000/svg">
  <defs>
    <linearGradient id="bg" x1="0" y1="0" x2="1200" y2="800" gradientUnits="userSpaceOnUse">
      <stop stop-color="#09111F"/>
      <stop offset="1" stop-color="#101827"/>
    </linearGradient>
  </defs>
  <rect width="1200" height="800" fill="url(#bg)"/>
  <rect x="60" y="80" width="1080" height="640" rx="40" fill="#0B1220" stroke="rgba(255,255,255,0.08)"/>
  <rect x="120" y="150" width="960" height="360" rx="28" fill="#111827" stroke="rgba(255,255,255,0.08)"/>
  <rect x="120" y="540" width="960" height="110" rx="24" fill="#0F172A" stroke="rgba(255,255,255,0.08)"/>
  <rect x="160" y="190" width="160" height="250" rx="22" fill="#0B1220" stroke="rgba(255,255,255,0.08)"/>
  <rect x="350" y="190" width="160" height="250" rx="22" fill="#0B1220" stroke="rgba(255,255,255,0.08)"/>
  <rect x="540" y="190" width="160" height="250" rx="22" fill="#0B1220" stroke="rgba(255,255,255,0.08)"/>
  <rect x="730" y="190" width="160" height="250" rx="22" fill="#0B1220" stroke="rgba(255,255,255,0.08)"/>
  <circle cx="240" cy="275" r="34" fill="#34D399" fill-opacity="0.25"/>
  <circle cx="430" cy="275" r="34" fill="#6366F1" fill-opacity="0.25"/>
  <circle cx="620" cy="275" r="34" fill="#34D399" fill-opacity="0.25"/>
  <circle cx="810" cy="275" r="34" fill="#6366F1" fill-opacity="0.25"/>
  <rect x="200" y="365" width="80" height="18" rx="9" fill="#1F2937"/>
  <rect x="390" y="365" width="80" height="18" rx="9" fill="#1F2937"/>
  <rect x="580" y="365" width="80" height="18" rx="9" fill="#1F2937"/>
  <rect x="770" y="365" width="80" height="18" rx="9" fill="#1F2937"/>
  <rect x="160" y="580" width="880" height="18" rx="9" fill="#1F2937"/>
  <rect x="160" y="615" width="640" height="18" rx="9" fill="#1F2937"/>
  <rect x="160" y="650" width="500" height="18" rx="9" fill="#1F2937"/>
</svg>