<svg width="1200" height="800" viewBox="0 0 1200 800" fill="none" xmlns="http://www.w3.org/2000/svg">
  <defs>
    <linearGradient id="bg" x1="0" y1="0" x2="1200" y2="800" gradientUnits="userSpaceOnUse">
      <stop stop-color="#09111F"/>
      <stop offset="1" stop-color="#111827"/>
    </linearGradient>
  </defs>
  <rect width="1200" height="800" fill="url(#bg)"/>
  <rect x="70" y="80" width="1060" height="640" rx="42" fill="#0B1220" stroke="rgba(255,255,255,0.08)"/>
  <rect x="120" y="130" width="520" height="460" rx="30" fill="#0F172A" stroke="rgba(255,255,255,0.08)"/>
  <rect x="680" y="130" width="400" height="200" rx="30" fill="#111827" stroke="rgba(255,255,255,0.08)"/>
  <rect x="680" y="350" width="400" height="240" rx="30" fill="#111827" stroke="rgba(255,255,255,0.08)"/>
  <rect x="150" y="170" width="200" height="24" rx="12" fill="#1F2937"/>
  <rect x="150" y="220" width="380" height="18" rx="9" fill="#1F2937"/>
  <rect x="150" y="255" width="320" height="18" rx="9" fill="#1F2937"/>
  <rect x="150" y="290" width="350" height="18" rx="9" fill="#1F2937"/>
  <rect x="150" y="340" width="220" height="18" rx="9" fill="#34D399"/>
  <rect x="150" y="385" width="300" height="18" rx="9" fill="#1F2937"/>
  <rect x="150" y="420" width="280" height="18" rx="9" fill="#1F2937"/>
  <rect x="150" y="455" width="340" height="18" rx="9" fill="#1F2937"/>
  <rect x="730" y="170" width="300" height="24" rx="12" fill="#1F2937"/>
  <path d="M730 232H1030" stroke="#1F2937" stroke-width="18" stroke-linecap="round"/>
  <path d="M730 275H962" stroke="#34D399" stroke-width="18" stroke-linecap="round"/>
  <path d="M730 392H1012" stroke="#1F2937" stroke-width="18" stroke-linecap="round"/>
  <path d="M730 442H980" stroke="#6366F1" stroke-width="18" stroke-linecap="round"/>
  <path d="M730 492H950" stroke="#1F2937" stroke-width="18" stroke-linecap="round"/>
  <circle cx="982" cy="275" r="14" fill="#34D399"/>
  <circle cx="981" cy="442" r="14" fill="#6366F1"/>
</svg>