<svg width="1200" height="800" viewBox="0 0 1200 800" fill="none" xmlns="http://www.w3.org/2000/svg">
  <defs>
    <linearGradient id="bg" x1="0" y1="0" x2="1200" y2="800" gradientUnits="userSpaceOnUse">
      <stop stop-color="#08111F"/>
      <stop offset="1" stop-color="#101827"/>
    </linearGradient>
    <linearGradient id="chart" x1="290" y1="420" x2="990" y2="420" gradientUnits="userSpaceOnUse">
      <stop stop-color="#34D399"/>
      <stop offset="1" stop-color="#6366F1"/>
    </linearGradient>
  </defs>
  <rect width="1200" height="800" fill="url(#bg)"/>
  <rect x="60" y="60" width="1080" height="680" rx="40" fill="#0B1220" stroke="rgba(255,255,255,0.08)"/>
  <rect x="120" y="120" width="340" height="50" rx="18" fill="rgba(255,255,255,0.07)"/>
  <rect x="120" y="210" width="240" height="220" rx="28" fill="#111827" stroke="rgba(255,255,255,0.08)"/>
  <rect x="390" y="210" width="240" height="220" rx="28" fill="#111827" stroke="rgba(255,255,255,0.08)"/>
  <rect x="660" y="210" width="340" height="220" rx="28" fill="#111827" stroke="rgba(255,255,255,0.08)"/>
  <rect x="120" y="470" width="880" height="170" rx="28" fill="#111827" stroke="rgba(255,255,255,0.08)"/>
  <path d="M170 574C220 534 265 518 315 530C359 541 393 574 437 573C492 572 518 531 565 513C620 491 664 508 709 540C758 576 813 598 872 587C918 578 950 549 984 516" stroke="url(#chart)" stroke-width="10" stroke-linecap="round"/>
  <circle cx="315" cy="530" r="14" fill="#34D399"/>
  <circle cx="565" cy="513" r="14" fill="#6366F1"/>
  <circle cx="709" cy="540" r="14" fill="#34D399"/>
  <circle cx="872" cy="587" r="14" fill="#A78BFA"/>
  <rect x="145" y="245" width="70" height="90" rx="18" fill="#34D399" fill-opacity="0.35"/>
  <rect x="235" y="285" width="70" height="50" rx="18" fill="#6366F1" fill-opacity="0.45"/>
  <rect x="415" y="250" width="90" height="100" rx="20" fill="#34D399" fill-opacity="0.2"/>
  <rect x="525" y="270" width="70" height="80" rx="20" fill="#6366F1" fill-opacity="0.4"/>
  <rect x="690" y="250" width="250" height="20" rx="10" fill="#1F2937"/>
  <rect x="690" y="292" width="190" height="20" rx="10" fill="#1F2937"/>
  <rect x="690" y="334" width="220" height="20" rx="10" fill="#1F2937"/>
</svg>