<svg width="1600" height="1000" viewBox="0 0 1600 1000" fill="none" xmlns="http://www.w3.org/2000/svg">
  <defs>
    <linearGradient id="bg" x1="0" y1="0" x2="1600" y2="1000" gradientUnits="userSpaceOnUse">
      <stop stop-color="#09111F"/>
      <stop offset="0.55" stop-color="#0F172A"/>
      <stop offset="1" stop-color="#030712"/>
    </linearGradient>
    <linearGradient id="accent" x1="880" y1="190" x2="1270" y2="560" gradientUnits="userSpaceOnUse">
      <stop stop-color="#34D399"/>
      <stop offset="1" stop-color="#6366F1"/>
    </linearGradient>
    <linearGradient id="screen" x1="360" y1="190" x2="1140" y2="810" gradientUnits="userSpaceOnUse">
      <stop stop-color="#0B1220"/>
      <stop offset="1" stop-color="#111827"/>
    </linearGradient>
  </defs>
  <rect width="1600" height="1000" fill="url(#bg)"/>
  <circle cx="1130" cy="230" r="220" fill="#10B981" fill-opacity="0.10"/>
  <circle cx="1235" cy="315" r="150" fill="#6366F1" fill-opacity="0.12"/>
  <rect x="290" y="145" width="1020" height="710" rx="44" fill="url(#screen)" stroke="rgba(255,255,255,0.10)"/>
  <rect x="360" y="205" width="320" height="78" rx="22" fill="rgba(255,255,255,0.06)"/>
  <rect x="360" y="312" width="420" height="22" rx="11" fill="#1F2937"/>
  <rect x="360" y="356" width="580" height="22" rx="11" fill="#1F2937"/>
  <rect x="360" y="400" width="500" height="22" rx="11" fill="#1F2937"/>
  <rect x="360" y="470" width="300" height="172" rx="28" fill="#0F172A" stroke="rgba(255,255,255,0.08)"/>
  <rect x="700" y="470" width="530" height="172" rx="28" fill="#0B1220" stroke="rgba(255,255,255,0.08)"/>
  <rect x="360" y="680" width="870" height="92" rx="24" fill="rgba(255,255,255,0.05)"/>
  <path d="M416 760C416 642 470 572 558 548C618 532 676 542 731 577C795 616 866 663 953 669C1043 675 1128 643 1188 580" stroke="url(#accent)" stroke-width="10" stroke-linecap="round"/>
  <circle cx="558" cy="548" r="16" fill="#34D399"/>
  <circle cx="731" cy="577" r="16" fill="#34D399"/>
  <circle cx="953" cy="669" r="16" fill="#6366F1"/>
  <path d="M846 290L915 245L989 315L1076 247L1140 314" stroke="#34D399" stroke-opacity="0.75" stroke-width="8" stroke-linecap="round" stroke-linejoin="round"/>
  <path d="M848 290L902 362L978 321L1055 390L1140 314" stroke="#6366F1" stroke-opacity="0.7" stroke-width="8" stroke-linecap="round" stroke-linejoin="round"/>
  <circle cx="918" cy="245" r="16" fill="#34D399"/>
  <circle cx="989" cy="315" r="16" fill="#A78BFA"/>
  <circle cx="1076" cy="247" r="16" fill="#34D399"/>
  <circle cx="1140" cy="314" r="16" fill="#6366F1"/>
  <ellipse cx="930" cy="818" rx="220" ry="26" fill="#000000" fill-opacity="0.45"/>
  <rect x="625" y="840" width="350" height="24" rx="12" fill="rgba(255,255,255,0.10)"/>
</svg>